<?xml version="1.0" encoding="utf-8"?>
<svg xmlns="http://www.w3.org/2000/svg">
    <symbol id="icon-arrow" viewBox="0 0 23 13">
        <polygon points="11.1464466 11.8535534 11.5 12.2071068 12.2071068 11.5 11.8535534 11.1464466 1.85355339 1.14644661 1.5 0.792893219 0.792893219 1.5 1.14644661 1.85355339"/>
        <polygon points="11.5287546 10.7641386 11.1752012 11.117692 11.882308 11.8247988 12.2358614 11.4712454 21.8535534 1.85355339 22.2071068 1.5 21.5 0.792893219 21.1464466 1.14644661"/>
    </symbol>
    <symbol id="icon-map-pin" viewBox="0 0 34 47">
        <g transform="translate(-705.000000, -387.000000)">
            <path d="M739,403.940535 C739,406.279512 738.524261,408.507832 737.663969,410.534532 C735.083286,416.614777 721.999976,433.481525 721.999976,433.481525 C721.999976,433.481525 708.916666,416.614777 706.335934,410.534532 C705.475691,408.507832 705,406.27956 705,403.940535 C705,394.584533 712.611145,387 721.999976,387 C731.388806,387 739,394.584533 739,403.940535 L739,403.940535 Z M721.999976,395.534765 C717.806888,395.534765 714.407718,398.922049 714.407718,403.100476 C714.407718,407.278854 717.806888,410.666187 721.999976,410.666187 C726.193064,410.666187 729.592185,407.278854 729.592185,403.100476 C729.592185,398.922098 726.193064,395.534765 721.999976,395.534765 L721.999976,395.534765 Z" id="Shape"/>
        </g>
    </symbol>
    <symbol id="icon-slat-cross" viewBox="0 0 25 25">
        <path d="M12.4085013,9.76307153 L20.4027891,1.76878374 L21.8170027,0.354570181 L24.6454298,3.18299731 L23.2312163,4.59721087 L15.2369285,12.5914987 L22.5716217,19.9261918 L23.9858352,21.3404054 L21.1574081,24.1688325 L19.7431945,22.754619 L12.4085013,15.4199258 L5.07380816,22.754619 L3.6595946,24.1688325 L0.831167471,21.3404054 L2.24538103,19.9261918 L9.58007422,12.5914987 L1.58578644,4.59721087 L0.171572875,3.18299731 L3,0.354570181 L4.41421356,1.76878374 L12.4085013,9.76307153 Z" id="Combined-Shape" stroke="none"></path>
    </symbol>
    <symbol id="icon-slat-tick" viewBox="0 0 26 24">
        <path d="M9.56962974,17.6185424 L21.3983715,1.80217443 L22.5961971,0.200545913 L25.7994541,2.59619706 L24.6016285,4.19782557 L12.6200997,20.2184872 L12.7140846,20.2985915 L11.458076,21.7722445 L10.2984085,23.3228514 L10.1995156,23.2488915 L10.1194114,23.3428764 L8.64575838,22.0868678 L7.09515145,20.9272003 L7.1691114,20.8283074 L1.70266337,16.1692013 L0.180520909,14.8718646 L2.77519418,11.8275797 L4.29733663,13.1249164 L9.56962974,17.6185424 Z" id="Combined-Shape" stroke="none"></path>
    </symbol>
    <symbol id="icon-cart" viewBox="6 0 87 71">
        <path d="M88.8,28.5 L79.5,65.5 C78.5,68.5 76.5,70.5 74.5,70.5 L24.5,70.5 C22.5,70.5 20.5,68.5 19.5,65.5 L10.2,28.5 C8.1,28.4 6.5,26.6 6.5,24.5 C6.5,22.3 8.3,20.5 10.5,20.5 L28.8,20.5 L47.7,1.2 C48.7,0.2 50.2,0.2 51.2,1.2 L70.2,20.5 L88.5,20.5 C90.7,20.5 92.5,22.3 92.5,24.5 C92.5,26.6 90.8,28.3 88.8,28.5 L88.8,28.5 Z M62.5,53.5 C62.5,54.6 63.4,55.5 64.5,55.5 C65.6,55.5 66.5,54.6 66.5,53.5 L66.5,37.5 C66.5,36.4 65.6,35.5 64.5,35.5 C63.4,35.5 62.5,36.4 62.5,37.5 L62.5,53.5 L62.5,53.5 Z M52.5,53.5 C52.5,54.6 53.4,55.5 54.5,55.5 C55.6,55.5 56.5,54.6 56.5,53.5 L56.5,37.5 C56.5,36.4 55.6,35.5 54.5,35.5 C53.4,35.5 52.5,36.4 52.5,37.5 L52.5,53.5 L52.5,53.5 Z M42.5,53.5 C42.5,54.6 43.4,55.5 44.5,55.5 C45.6,55.5 46.5,54.6 46.5,53.5 L46.5,37.5 C46.5,36.4 45.6,35.5 44.5,35.5 C43.4,35.5 42.5,36.4 42.5,37.5 L42.5,53.5 L42.5,53.5 Z M32.5,53.5 C32.5,54.6 33.4,55.5 34.5,55.5 C35.6,55.5 36.5,54.6 36.5,53.5 L36.5,37.5 C36.5,36.4 35.6,35.5 34.5,35.5 C33.4,35.5 32.5,36.4 32.5,37.5 L32.5,53.5 L32.5,53.5 Z M49.5,6.6 L35.8,20.5 L63.2,20.5 L49.5,6.6 L49.5,6.6 Z" id="Shape" stroke="none" fill-rule="evenodd"></path>
    </symbol>
    <symbol id="icon-tick" viewBox="0 0 102 102">
        <path d="M50.5,101 C78.3903799,101 101,78.3903799 101,50.5 C101,22.6096201 78.3903799,1.42108547e-14 50.5,1.42108547e-14 C22.6096201,1.42108547e-14 8.52651283e-14,22.6096201 8.52651283e-14,50.5 C8.52651283e-14,78.3903799 22.6096201,101 50.5,101 Z M43.7519531,68.1018066 L77.4626465,27.6782227 L79.0019531,28.854248 L43.7519531,71.125 L26.6965332,53.8588867 L28.0251465,52.451416 L43.7519531,68.1018066 Z" id="Combined-Shape" stroke="none" fill-rule="evenodd"></path>
    </symbol>
    <symbol id="icon-minus" viewBox="0 0 50 50">
        <path d="M25,50 C38.8071187,50 50,38.8071187 50,25 C50,11.1928813 38.8071187,0 25,0 C11.1928813,0 0,11.1928813 0,25 C0,38.8071187 11.1928813,50 25,50 Z M39.9857955,25.9318182 L41.4857955,25.9318182 L41.4857955,22.9318182 L39.9857955,22.9318182 L9.30397727,22.9318182 L7.80397727,22.9318182 L7.80397727,25.9318182 L9.30397727,25.9318182 L39.9857955,25.9318182 Z" fill-rule="evenodd"></path>
    </symbol>
    <symbol id="icon-plus" viewBox="0 0 50 50">
        <path d="M26.1448864,22.9318182 L39.9857955,22.9318182 L41.4857955,22.9318182 L41.4857955,25.9318182 L39.9857955,25.9318182 L26.1448864,25.9318182 L26.1448864,39.7727273 L26.1448864,41.2727273 L23.1448864,41.2727273 L23.1448864,39.7727273 L23.1448864,25.9318182 L9.30397727,25.9318182 L7.80397727,25.9318182 L7.80397727,22.9318182 L9.30397727,22.9318182 L23.1448864,22.9318182 L23.1448864,9.09090909 L23.1448864,7.59090909 L26.1448864,7.59090909 L26.1448864,9.09090909 L26.1448864,22.9318182 Z M25,50 C38.8071187,50 50,38.8071187 50,25 C50,11.1928813 38.8071187,0 25,0 C11.1928813,0 0,11.1928813 0,25 C0,38.8071187 11.1928813,50 25,50 Z" fill-rule="evenodd"></path>
    </symbol>
    <symbol id="icon-theft" viewBox="-1 0 57 70">
        <path d="M10.1743,28.5795 C5.2963,28.5795 1.7573,26.4295 0.4643,22.6825 C-0.2927,20.4915 -0.1217,18.2085 0.9583,16.0805 C2.5513,12.9365 6.0423,10.3965 10.7883,8.9305 C18.2153,6.6285 33.2513,8.2115 34.6743,12.3265 C34.9443,13.1075 34.8323,13.9675 34.3303,14.9555 C32.4433,18.6815 23.9363,25.3025 17.0683,27.4295 C14.6003,28.1925 12.2803,28.5795 10.1743,28.5795 Z M19.2143,9.8555 C16.4093,9.8555 13.6293,10.1435 11.3793,10.8405 C7.1553,12.1465 4.0883,14.3285 2.7413,16.9845 C1.9133,18.6185 1.7783,20.3635 2.3553,22.0305 C3.3663,24.9635 6.1443,26.5795 10.1743,26.5795 C12.0803,26.5795 14.2013,26.2225 16.4783,25.5195 C22.6293,23.6135 30.8793,17.3405 32.5473,14.0495 C32.7123,13.7255 32.8863,13.2765 32.7833,12.9805 C32.2313,11.3795 25.6583,9.8555 19.2143,9.8555 Z M40.3224,69.0002 C37.6284,69.0002 36.1544,66.8592 35.7084,65.5942 C35.5634,65.2512 35.4314,64.8042 35.3474,64.3532 L32.8124,50.5482 C31.6584,49.0772 29.6294,46.9072 28.1404,45.3562 C27.6394,47.4482 26.9434,50.3822 26.5114,52.3432 C26.1304,54.0702 24.4094,56.7082 21.2304,56.8932 L21.2254,56.8932 C17.9894,56.8932 5.9844,54.9632 5.8574,54.9422 C5.8454,54.9422 3.2094,54.6402 1.7574,52.7462 C1.0074,51.7662 0.7124,50.5502 0.9064,49.2262 C1.3114,46.4292 4.1594,45.2032 6.6284,45.4672 L15.9654,46.7672 L17.6884,36.5602 C18.3234,32.7832 21.6504,29.6412 22.7444,28.6082 L22.9254,28.4352 L35.5434,15.9042 C36.6324,14.7422 38.0704,14.1142 39.6814,14.1142 C41.3774,14.1142 42.8134,14.7322 43.9504,15.9502 C44.2494,16.3212 45.0744,17.4172 45.2564,18.4072 L45.7924,21.3302 C47.1414,20.2412 49.0624,19.9782 50.7044,20.8172 C52.9284,21.9542 53.8134,24.6882 52.6774,26.9132 L47.6634,36.7112 C46.7644,38.4622 44.9244,39.4062 42.9744,39.1322 C41.0484,38.8482 39.5224,37.3762 39.1724,35.4652 L38.9614,34.3182 L36.1484,37.1552 C37.9194,39.4012 40.7204,43.0132 41.4954,44.0142 L41.6954,44.2712 C42.6644,45.6422 42.9914,47.4942 43.1014,48.8122 L45.1184,62.6842 C45.5334,66.1022 44.1464,68.3602 41.3144,68.9032 C40.9764,68.9682 40.6434,69.0002 40.3224,69.0002 Z M27.0454,41.3682 L28.3074,42.6562 C29.9964,44.3812 33.0544,47.5652 34.5464,49.5212 L34.6914,49.7122 L37.3134,63.9882 C37.3704,64.2942 37.4634,64.6102 37.5744,64.8762 C37.8804,65.7402 39.0044,67.3092 40.9384,66.9382 C42.6774,66.6052 43.4174,65.2632 43.1364,62.9482 L41.1144,49.0392 C41.0344,48.1002 40.8064,46.4782 40.0924,45.4662 L39.9144,45.2392 C39.0554,44.1302 35.6974,39.8002 34.0294,37.7022 L33.4774,37.0072 L40.2384,30.1932 L41.1394,35.1042 C41.3344,36.1722 42.1884,36.9942 43.2624,37.1522 C44.3514,37.3062 45.3814,36.7782 45.8834,35.7992 L50.8964,26.0032 C51.5304,24.7612 51.0364,23.2332 49.7944,22.5982 C48.5504,21.9662 47.0254,22.4592 46.3894,23.6982 L44.7724,26.8592 L43.2894,18.7682 C43.2214,18.3942 42.7994,17.7112 42.4374,17.2562 C41.7334,16.5072 40.8164,16.1142 39.6814,16.1142 C38.6234,16.1142 37.7144,16.5132 36.9784,17.2982 L24.3454,29.8452 C24.3054,29.8862 24.2254,29.9612 24.1234,30.0572 C23.1454,30.9812 20.1854,33.7762 19.6604,36.8922 L17.6134,49.0152 L6.3834,47.4512 C4.8754,47.2942 3.1114,47.9552 2.8854,49.5142 C2.7684,50.3152 2.9184,50.9732 3.3454,51.5292 C4.1034,52.5182 5.6114,52.8982 6.1294,52.9612 C6.2964,52.9872 18.2044,54.8952 21.1684,54.8952 C23.4294,54.7622 24.3854,52.6962 24.5584,51.9122 C25.1424,49.2682 26.1954,44.8842 26.6214,43.1222 L27.0454,41.3682 Z M48.2524,15.3166 C44.1374,15.3166 40.7894,11.9686 40.7894,7.8536 C40.7894,3.7386 44.1374,0.3906 48.2524,0.3906 C52.3674,0.3906 55.7154,3.7386 55.7154,7.8536 C55.7154,11.9686 52.3674,15.3166 48.2524,15.3166 Z M48.2524,2.3906 C45.2394,2.3906 42.7894,4.8406 42.7894,7.8536 C42.7894,10.8666 45.2394,13.3166 48.2524,13.3166 C51.2654,13.3166 53.7154,10.8666 53.7154,7.8536 C53.7154,4.8406 51.2654,2.3906 48.2524,2.3906 Z"></path>
    </symbol>
    <symbol id="icon-calendar" viewBox="159 12 19 19">
        <path d="M176.820134,14.7444196 L174.987567,14.7444196 L174.987567,13.2893415 C174.987567,12.7073103 174.524159,12.25 173.934368,12.25 C173.344576,12.25 172.881168,12.7073103 172.881168,13.2893415 L172.881168,14.7444196 L164.034293,14.7444196 L164.034293,13.2893415 C164.034293,12.7073103 163.570885,12.25 162.981094,12.25 C162.391302,12.25 161.927894,12.7073103 161.927894,13.2893415 L161.927894,14.7444196 L160.053199,14.7444196 C159.463408,14.7444196 159,15.2017299 159,15.7837612 L159,29.8564453 C159,30.4384766 159.463408,30.8957868 160.053199,30.8957868 L176.820134,30.8957868 C177.409926,30.8957868 177.873333,30.4384766 177.873333,29.8564453 L177.873333,15.7837612 C177.873333,15.2017299 177.388862,14.7444196 176.820134,14.7444196 L176.820134,14.7444196 Z M166.625164,24.2024275 L166.625164,21.4793527 L170.290298,21.4793527 L170.290298,24.2024275 L166.625164,24.2024275 L166.625164,24.2024275 Z M170.290298,26.0732422 L170.290298,28.8171038 L166.625164,28.8171038 L166.625164,26.0732422 L170.290298,26.0732422 L170.290298,26.0732422 Z M161.106399,21.4793527 L164.729405,21.4793527 L164.729405,24.2024275 L161.106399,24.2024275 L161.106399,21.4793527 L161.106399,21.4793527 Z M166.625164,19.6085379 L166.625164,16.8231027 L170.290298,16.8231027 L170.290298,19.6085379 L166.625164,19.6085379 L166.625164,19.6085379 Z M172.186057,21.4793527 L175.766935,21.4793527 L175.766935,24.2024275 L172.186057,24.2024275 L172.186057,21.4793527 L172.186057,21.4793527 Z M175.766935,19.6085379 L172.186057,19.6085379 L172.186057,16.8231027 L175.766935,16.8231027 L175.766935,19.6085379 L175.766935,19.6085379 Z M164.729405,16.8231027 L164.729405,19.6085379 L161.106399,19.6085379 L161.106399,16.8231027 L164.729405,16.8231027 L164.729405,16.8231027 Z M161.106399,26.0732422 L164.729405,26.0732422 L164.729405,28.8171038 L161.106399,28.8171038 L161.106399,26.0732422 L161.106399,26.0732422 Z M172.186057,28.8171038 L172.186057,26.0732422 L175.766935,26.0732422 L175.766935,28.8171038 L172.186057,28.8171038 L172.186057,28.8171038 Z" fill-rule="evenodd"></path>
    </symbol>
    <symbol id="icon-pdf" viewBox="0 0 168.3 195">
        <path class="st0" d="M46.2,108.8c0-3-2.1-4.8-5.7-4.8c-1.5,0-2.5,0.1-3,0.3v9.6c0.6,0.1,1.4,0.2,2.4,0.2 C43.8,114.1,46.2,112.1,46.2,108.8z"/>
        <path class="st0" d="M71.2,104.2c-1.6,0-2.7,0.1-3.3,0.3v21.2c0.6,0.1,1.6,0.1,2.5,0.1c6.6,0,10.9-3.6,10.9-11.3 C81.4,107.7,77.5,104.2,71.2,104.2z"/>
        <path class="st0" d="M158.6,79.8V53.4c0,0,0,0,0-0.1c0-0.2,0-0.4-0.1-0.5c0,0,0-0.1,0-0.1c0-0.1-0.1-0.3-0.1-0.4
            c0-0.1,0-0.1-0.1-0.2c-0.1-0.1-0.1-0.2-0.2-0.3c0,0-0.1-0.1-0.1-0.1c-0.1-0.1-0.2-0.3-0.3-0.4l-39.9-40.4c0,0,0,0,0,0c0,0,0,0,0,0
            c-0.1-0.1-0.2-0.2-0.4-0.3c0,0-0.1-0.1-0.1-0.1c-0.1-0.1-0.2-0.1-0.3-0.2c-0.1,0-0.1-0.1-0.2-0.1c-0.1-0.1-0.3-0.1-0.5-0.1
            c0,0,0,0-0.1,0c-0.2,0-0.4,0-0.5-0.1c0,0,0,0-0.1,0H27.7c-1.7,0-3.1,1.4-3.1,3.1v66.8H15v68.3h9.7v31c0,1.7,1.4,3.1,3.1,3.1h127.8
            c1.7,0,3.1-1.4,3.1-3.1v-31h9.3V79.8H158.6z M118.7,20.6l29.5,29.8h-29.5C118.7,50.4,118.7,20.6,118.7,20.6z M30.2,99.2
            c2.3-0.4,5.4-0.7,9.9-0.7c4.5,0,7.7,0.9,9.9,2.6c2.1,1.6,3.5,4.3,3.5,7.5c0,3.2-1.1,5.9-3,7.7c-2.5,2.4-6.2,3.4-10.5,3.4
            c-1,0-1.8,0-2.5-0.1v11.6h-7.2L30.2,99.2L30.2,99.2z M152.4,176H30.8v-27.9h121.6V176z M60.5,131V99.2c2.7-0.4,6.2-0.7,9.9-0.7
            c6.1,0,10.1,1.1,13.2,3.5c3.4,2.5,5.5,6.5,5.5,12.2c0,6.2-2.3,10.5-5.4,13.1c-3.4,2.8-8.6,4.2-14.9,4.2
            C65,131.5,62.4,131.2,60.5,131z M115.3,112.2v6h-11.6v13h-7.3V98.8h19.8v6h-12.4v7.4C103.7,112.2,115.3,112.2,115.3,112.2z
             M152.4,79.8H30.8V16.1h81.7v37.3c0,1.7,1.4,3.1,3.1,3.1h36.8L152.4,79.8L152.4,79.8z"/>
    </symbol>
</svg>
